<svg width="500" height="493" viewBox="0 0 500 493" fill="none" xmlns="http://www.w3.org/2000/svg">
<path fill-rule="evenodd" clip-rule="evenodd" d="M250.238 0C255.666 0 262.315 1.22231 269.101 3.53113C274.936 5.43251 289.456 11.2725 301.398 16.5691C313.34 21.8658 331.931 30.1504 342.788 35.0397C353.644 39.7931 374.678 48.6209 389.605 54.4609C404.533 60.4366 424.074 68.178 433.03 71.7091C441.987 75.2402 451.758 79.722 454.743 81.7592C457.729 83.6606 462.342 88.2782 464.921 91.9452C467.499 95.4763 470.349 101.18 471.299 104.576C472.656 109.329 473.063 131.467 473.063 302.862L478.084 305.443C480.934 306.801 484.734 309.517 486.633 311.147C488.533 312.912 491.926 318.073 498.168 330.704V402.685L494.097 411.377C491.519 416.945 487.855 421.97 483.919 425.365C480.527 428.353 475.641 431.205 473.063 432.02C470.485 432.699 464.378 433.922 459.493 434.736C454.607 435.551 431.131 441.663 407.247 448.318C383.363 454.972 348.894 464.344 330.574 469.369C312.254 474.258 294.884 479.147 291.899 480.098C288.913 481.048 280.635 484.308 273.579 487.432C262.858 492.049 259.194 493 251.459 493C245.759 493 239.653 492.049 235.175 490.42C231.375 488.926 224.454 486.209 219.976 484.308C215.498 482.542 201.792 478.196 189.442 474.801C177.093 471.406 156.331 465.973 143.303 462.578C130.276 459.318 104.628 452.528 86.3077 447.639C67.9877 442.885 49.3963 438.403 44.9181 437.996C40.4399 437.588 32.8405 435.823 28.2266 434.193C23.4769 432.563 17.6417 429.575 15.3347 427.674C12.8921 425.773 8.82096 419.933 1.49296 405.401L0.950147 368.731C0.543036 333.42 0.67874 331.79 3.52852 325.271C5.15696 321.469 8.14244 316.308 10.178 313.727C12.2135 311.147 16.8275 307.616 26.5981 302.862V207.386C26.5981 126.442 26.8695 110.959 28.6337 104.847C29.855 100.637 33.1119 94.9331 36.5045 90.5871C39.7614 86.7843 44.7824 82.1667 47.7679 80.5369C50.6177 78.9072 60.3883 74.697 69.3448 71.1658C78.3012 67.6347 92.0073 62.338 99.8781 59.3501C107.749 56.3623 119.012 51.8804 124.983 49.5716C130.954 47.127 146.153 40.4722 158.909 34.9039C171.53 29.3355 189.578 21.3226 198.942 16.9766C208.305 12.7664 221.74 7.19807 228.797 4.61763C238.16 1.22231 243.995 0 250.102 0L250.238 0ZM209.255 23.3598C195.006 29.743 170.987 40.4722 155.652 47.2628C140.318 53.9176 124.44 60.7083 120.369 62.2022C116.298 63.6961 99.1996 70.351 82.508 77.0058C55.3673 87.5992 51.2962 89.6364 45.7323 95.0689C40.9827 99.8223 39.2186 102.81 37.8615 108.243C36.6402 113.539 36.2331 140.294 36.2331 208.472V301.504H46.4109C45.7323 148.443 46.1395 117.071 47.0894 113.404C47.9036 110.416 50.2106 106.07 52.2461 103.761C54.2817 101.452 58.3528 98.3284 61.3383 96.8344C64.3237 95.3405 68.9377 93.4391 71.516 92.6242C74.0944 91.9452 83.5937 88.4141 92.5501 84.8829C101.507 81.3518 117.384 75.1044 127.833 71.03C138.282 66.9556 150.631 61.7948 155.245 59.6218C159.995 57.4488 164.066 55.6832 164.473 55.6832C164.88 55.6832 171.122 52.8311 178.315 49.4358C185.643 46.0405 197.72 40.608 205.184 37.3485C212.648 34.089 223.64 29.1997 229.611 26.3477C239.246 21.73 241.688 21.1868 250.645 21.1868C260.008 21.1868 262.18 21.73 277.107 28.3848C286.063 32.3234 308.047 42.2377 325.96 50.2507C343.873 58.2636 374.135 70.8942 393.134 78.3639C412.132 85.8336 430.724 93.1675 434.523 94.5256C438.187 95.8837 443.073 98.6 445.244 100.501C447.415 102.403 450.401 106.341 452.029 109.329C454.879 114.626 454.879 116.256 455.286 201.003C455.557 248.401 455.286 290.503 454.607 294.442L453.522 301.504L463.021 300.825V106.613C457.729 97.6493 453.793 93.3033 450.808 91.2661C447.822 89.2289 442.258 86.1052 438.594 84.4755C434.795 82.9815 423.531 78.3639 413.489 74.2895C403.447 70.2152 391.777 65.8691 387.705 64.511C383.634 63.1529 367.35 56.4981 351.744 49.5716C336.002 42.6452 309.812 30.9653 293.391 23.6314C265.165 11.1366 262.994 10.3218 253.359 10.0501C247.795 9.77851 241.281 10.186 239.11 10.7292C236.803 11.2725 223.368 16.9766 209.255 23.3598V23.3598ZM258.109 41.6945C261.094 41.4229 257.973 41.2871 251.323 41.2871C244.538 41.2871 242.095 41.4229 245.895 41.6945C249.559 41.9661 255.123 41.9661 258.109 41.6945ZM232.325 74.2895C241.281 74.1537 233.275 73.8821 214.683 73.8821C195.956 73.8821 188.628 74.1537 198.399 74.2895C208.034 74.5612 223.368 74.5612 232.325 74.2895ZM304.926 74.2895C314.29 74.1537 306.283 73.8821 287.285 73.8821C268.286 73.8821 260.687 74.1537 270.322 74.2895C279.957 74.5612 295.563 74.5612 304.926 74.2895ZM180.757 83.7964C185.914 83.5248 181.979 83.389 171.937 83.389C161.895 83.389 157.552 83.5248 162.437 83.7964C167.323 84.068 175.465 84.068 180.757 83.7964ZM220.111 83.7964C223.097 83.5248 220.926 83.2532 215.362 83.2532C209.798 83.2532 207.355 83.5248 209.934 83.7964C212.512 84.068 217.126 84.068 220.111 83.7964ZM290.677 83.7964C293.663 83.5248 291.899 83.2532 286.606 83.2532C281.314 83.2532 279.007 83.5248 281.178 83.7964C283.349 84.068 287.692 84.068 290.677 83.7964ZM338.852 83.7964C344.416 83.6606 340.481 83.389 330.031 83.389C319.582 83.389 314.968 83.5248 319.854 83.7964C324.739 84.068 333.288 84.068 338.852 83.7964ZM157.009 120.33C144.66 124.269 130.14 129.158 124.712 131.059L114.941 134.455C114.941 278.416 115.348 295.121 116.705 296.479C117.655 297.294 130.004 303.134 144.117 309.381C158.366 315.629 176.279 323.642 184.15 327.309C192.021 330.84 201.656 335.186 205.591 336.951C209.391 338.717 212.512 340.347 212.376 340.618C212.105 340.754 201.52 337.902 188.9 334.235C176.144 330.432 160.266 325.543 153.617 323.234C146.832 320.925 135.568 316.851 128.512 314.135C121.455 311.283 113.856 307.887 111.684 306.393C109.377 304.764 106.528 301.097 105.171 298.109C103.813 294.985 102.728 289.417 102.728 284.799V277.058L69.4805 276.243L102.728 275.7V267.551H55.2316C55.2316 273.798 55.9101 274.342 59.3027 274.342C61.474 274.342 63.3738 274.885 63.3738 275.7C63.3738 276.515 61.474 277.058 59.3027 277.058C55.503 277.058 55.2316 277.465 55.2316 281.811C55.2316 286.293 55.503 286.565 59.9812 286.565C62.5596 286.565 64.7309 287.108 64.7309 287.923C64.7309 288.738 62.5596 289.281 59.9812 289.281C55.503 289.281 55.2316 289.553 56.0458 293.084C56.4529 295.121 57.81 298.245 59.0313 300.01C60.3883 301.776 62.831 304.356 64.7309 305.85C66.6307 307.208 75.4514 310.468 84.4079 313.048C93.3643 315.629 104.628 318.752 109.513 319.839C114.398 321.061 127.833 324.592 139.368 327.988C150.903 331.247 170.715 336.68 183.472 340.211C196.092 343.742 215.362 349.039 226.218 352.026C240.331 355.829 247.659 357.323 252.002 356.916C255.394 356.508 266.386 353.928 276.429 351.212C286.471 348.36 316.732 339.939 343.602 332.469C370.471 325.136 400.462 316.851 410.097 314.135C419.732 311.554 430.316 308.159 433.438 306.801C436.83 305.307 440.358 302.319 441.987 299.874C443.48 297.43 444.701 294.034 444.701 292.405C444.701 289.688 444.022 289.281 439.951 289.281C437.373 289.281 435.202 288.738 435.202 287.923C435.202 287.108 437.373 286.565 439.951 286.565C443.751 286.565 444.701 286.021 444.701 283.848C444.701 282.355 444.972 280.182 445.38 279.095C445.922 277.601 444.837 277.058 440.901 276.786C436.016 276.65 436.016 276.65 440.223 276.107C444.158 275.7 444.701 275.156 444.701 271.625V267.551H398.562V275.7L427.738 276.515L398.562 277.058C398.562 287.108 398.019 292.133 397.205 294.714C396.526 297.294 393.948 301.368 391.505 303.813C389.062 306.122 383.363 309.517 378.885 311.418C374.407 313.32 363.415 317.394 354.458 320.518C345.502 323.642 327.453 329.482 314.426 333.42C301.398 337.494 290.542 340.618 290.406 340.482C290.135 340.347 299.362 335.865 310.762 330.432C322.025 325.136 342.652 315.764 356.494 309.653C370.335 303.541 382.684 297.294 384.041 295.664C386.213 292.948 386.484 288.738 386.348 242.154C386.348 214.312 386.077 191.496 385.67 191.496C385.263 191.496 376.035 194.755 364.907 198.83C353.915 202.904 328.674 212.004 308.59 219.202C288.642 226.4 271.543 232.24 270.593 232.24C269.779 232.104 277.243 228.573 287.285 224.227L305.605 216.35C306.962 187.15 307.505 176.149 307.64 173.161C307.912 167.864 308.047 167.864 308.997 171.803C309.54 174.112 310.083 184.569 310.219 195.299L310.354 214.584C327.724 207.522 344.823 200.731 359.615 194.755L386.484 184.026C386.348 136.899 386.077 134.319 383.906 133.64C382.684 133.232 361.108 125.763 336.138 117.206C311.169 108.65 282.399 98.8716 272.357 95.6121C262.315 92.3526 252.545 89.6364 250.645 89.6364C248.745 89.6364 231.918 94.9331 213.326 101.316C194.599 107.699 169.358 116.256 157.009 120.33V120.33ZM190.257 93.3033C196.228 93.1675 190.664 92.8959 178.043 92.8959C165.287 92.8959 160.538 93.1675 167.187 93.3033C173.837 93.5749 184.286 93.5749 190.257 93.3033ZM336.817 93.3033C343.466 93.1675 338.309 92.8959 325.282 92.8959C312.254 92.8959 306.69 93.1675 313.068 93.3033C319.447 93.5749 330.167 93.5749 336.817 93.3033ZM162.437 104.168C165.016 103.897 162.302 103.625 156.331 103.625C150.36 103.625 148.189 103.897 151.581 104.168C154.974 104.44 159.859 104.44 162.437 104.168ZM353.101 104.168C356.765 103.897 354.051 103.761 346.994 103.761C339.938 103.761 336.817 103.897 340.209 104.168C343.602 104.44 349.301 104.44 353.101 104.168ZM112.227 119.108C120.776 118.972 114.398 118.7 97.9782 118.7C81.5581 118.7 74.5015 118.972 82.3723 119.108C90.2431 119.379 103.678 119.379 112.227 119.108ZM416.882 119.108C425.16 118.972 418.646 118.7 402.633 118.7C386.62 118.7 379.835 118.972 387.705 119.108C395.576 119.379 408.604 119.379 416.882 119.108ZM78.9797 131.738C92.4144 132.146 103.949 132.01 104.763 131.467C105.442 130.923 94.4499 130.516 80.3368 130.652L54.5531 130.923L78.9797 131.738ZM421.631 131.738L445.38 130.788C405.483 130.38 395.712 130.788 396.526 131.602C397.34 132.282 408.061 132.282 421.631 131.738ZM78.9797 143.961C93.9071 143.961 102.728 143.418 102.728 142.603C102.728 141.788 93.9071 141.245 78.9797 141.245C64.0523 141.245 55.2316 141.788 55.2316 142.603C55.2316 143.418 64.0523 143.961 78.9797 143.961ZM421.631 143.961C436.152 143.961 444.701 143.418 444.701 142.603C444.701 141.788 436.152 141.245 421.631 141.245C407.111 141.245 398.562 141.788 398.562 142.603C398.562 143.418 407.111 143.961 421.631 143.961ZM82.6437 154.691C95.2642 154.826 102.728 154.283 102.728 153.468C102.728 152.653 93.9071 152.11 78.5726 152.246C64.5951 152.382 56.1815 152.925 58.6242 153.468C60.9311 154.012 71.6517 154.555 82.7794 154.691H82.6437ZM416.339 154.691C426.245 154.691 436.83 154.147 439.816 153.604C443.615 152.789 438.052 152.382 421.767 152.246C406.975 152.11 398.426 152.653 398.426 153.468C398.426 154.283 405.211 154.826 416.339 154.691ZM78.844 165.691C93.7714 165.691 102.592 165.148 102.592 164.333C102.592 163.518 93.7714 162.975 78.844 162.975C63.9166 162.975 55.0959 163.518 55.0959 164.333C55.0959 165.148 63.9166 165.691 78.844 165.691ZM421.496 165.691C436.016 165.691 444.565 165.148 444.565 164.333C444.565 163.518 436.016 162.975 421.496 162.975C406.975 162.975 398.426 163.518 398.426 164.333C398.426 165.148 406.975 165.691 421.496 165.691ZM90.3788 174.791C97.4354 174.655 92.2787 174.383 78.844 174.383C65.4094 174.383 59.5741 174.655 65.9522 174.791C72.3303 175.063 83.3222 175.063 90.3788 174.791ZM433.709 174.791C440.766 174.655 435.337 174.383 421.496 174.383C407.654 174.383 401.819 174.655 408.604 174.791C415.253 175.063 426.652 175.063 433.709 174.791ZM78.844 187.421C99.0639 187.421 102.592 187.15 102.592 185.384C102.592 183.619 99.7424 183.347 85.2221 183.347C75.7228 183.347 65.138 182.94 61.7454 182.532C56.0458 181.717 55.503 181.853 55.3673 184.569C55.0959 187.421 55.3673 187.421 78.844 187.421V187.421ZM421.496 187.421C442.53 187.421 444.565 187.15 444.565 184.977C444.565 182.94 442.53 182.668 421.496 182.668C400.462 182.668 398.426 182.94 398.426 184.977C398.426 187.15 400.462 187.421 421.496 187.421ZM90.3788 203.312C97.4354 203.176 92.2787 202.904 78.844 202.904C65.4094 202.904 59.5741 203.176 65.9522 203.312C72.3303 203.583 83.3222 203.583 90.3788 203.312ZM433.03 203.312C439.68 203.176 434.523 202.904 421.496 202.904C408.468 202.904 402.904 203.176 409.282 203.312C415.66 203.583 426.245 203.583 433.03 203.312ZM58.2171 213.769C59.8455 213.633 70.5661 213.498 81.8295 213.362C94.7213 213.226 102.592 212.683 102.592 211.868C102.592 211.053 93.7714 210.51 78.844 210.51C60.7954 210.51 55.0959 210.917 55.0959 212.139C55.0959 213.09 56.4529 213.769 58.2171 213.769V213.769ZM421.224 213.362C433.709 213.226 444.43 212.411 445.244 211.732C445.922 211.053 436.694 210.51 422.446 210.51C404.126 210.51 398.426 210.917 398.426 212.139C398.426 213.498 403.583 213.769 421.224 213.362ZM55.0959 228.165H102.592V220.017H55.0959V228.165ZM398.426 228.165H444.565V220.017H398.426V228.165ZM78.844 240.388C101.642 240.388 102.592 240.253 102.592 237.672C102.592 235.092 101.642 234.956 78.844 234.956C56.0458 234.956 55.0959 235.092 55.0959 237.672C55.0959 240.253 56.0458 240.388 78.844 240.388ZM397.883 238.623C398.29 239.981 404.261 240.388 421.496 240.388C443.615 240.388 444.565 240.253 444.565 237.672C444.565 235.092 443.615 234.956 421.767 234.956C409.147 234.956 398.562 235.363 398.019 235.907C397.612 236.586 397.476 237.808 397.883 238.623V238.623ZM79.2511 250.846C101.778 251.253 102.592 251.118 102.592 248.537C102.592 245.957 101.642 245.821 78.7083 245.821C56.7243 245.821 54.8245 245.957 55.3673 248.13C55.7744 250.303 58.2171 250.574 79.2511 250.846ZM421.089 250.846C438.052 251.118 444.158 250.846 444.837 249.488C445.38 248.673 445.922 247.451 445.922 246.772C445.922 246.228 435.202 245.821 422.174 245.821C400.462 245.821 398.426 245.957 398.426 248.13C398.426 250.303 400.597 250.574 421.089 250.846ZM55.0959 263.477H102.592V256.686H55.0959V263.477ZM398.426 263.477C436.016 263.477 444.565 262.933 444.565 262.118C444.565 261.304 444.837 259.81 445.244 258.723C445.787 256.958 442.665 256.686 422.174 256.686H398.426V263.477ZM17.2346 320.654C15.3347 322.419 13.0278 325.95 12.0778 328.259C10.8565 331.519 10.3137 341.569 10.3137 365.608C10.3137 391.412 10.7208 399.968 12.3493 404.722C13.4349 408.117 16.4204 413.278 18.7273 416.13C21.17 418.982 25.6482 422.649 28.6337 424.143C31.6192 425.637 40.1685 427.674 47.6322 428.625C55.0959 429.711 68.5306 432.428 77.487 434.601C86.4434 436.774 100.421 440.44 108.699 442.614C116.841 444.922 131.497 448.861 141.268 451.577C150.903 454.158 165.287 457.96 173.158 459.862C181.029 461.763 194.056 465.158 202.334 467.467C210.477 469.64 222.961 474.258 229.746 477.517C240.196 482.407 243.724 483.493 250.102 483.493C256.073 483.493 260.551 482.271 268.829 478.604C274.8 476.023 282.671 472.628 286.471 471.134C290.135 469.64 305.198 465.294 319.718 461.627C334.238 457.825 362.057 450.219 381.463 444.787C400.869 439.218 420.681 433.786 425.567 432.699C430.452 431.613 436.152 429.983 438.459 429.168C440.63 428.353 446.737 427.131 452.029 426.316C457.186 425.637 464.242 424.143 467.635 423.056C471.299 421.97 476.049 418.846 479.577 415.315C483.648 411.377 486.091 407.302 487.448 402.685C488.805 397.66 489.347 388.153 489.347 366.694C489.347 350.668 488.805 335.321 487.99 332.741C487.312 330.161 485.276 325.815 483.512 323.234C481.884 320.654 477.948 317.123 475.099 315.493C471.57 313.456 467.363 312.369 462.885 312.369C459.086 312.369 449.993 314.135 442.53 316.308C435.066 318.481 413.625 324.456 395.033 329.753C376.306 335.05 353.78 341.297 344.823 343.606C335.867 346.051 311.983 352.57 291.899 358.274C270.186 364.25 252.816 368.324 249.152 368.324C245.759 368.324 233.003 365.472 220.654 361.941C208.305 358.545 192.157 353.928 184.693 351.755C177.229 349.718 168.951 347.545 166.373 347.001C163.794 346.458 141.403 340.347 116.841 333.42C92.143 326.494 65.0023 318.888 56.4529 316.579C47.9036 314.271 38.6758 312.369 36.0974 312.369C33.519 312.369 28.9051 313.591 25.9196 314.95C22.9341 316.308 18.9987 318.888 17.2346 320.654V320.654Z" fill="#FBFBFB"/>
<path d="M474.013 201.003C473.877 217.029 473.741 204.262 473.741 172.482C473.741 140.702 473.877 127.528 474.013 143.282C474.284 159.037 474.284 184.977 474.013 201.003Z" fill="#9C9B9C" fill-opacity="0.6"/>
<path d="M26.191 159.58C26.0553 168.544 25.7839 161.481 25.7839 143.961C25.7839 126.442 26.0553 119.108 26.191 127.664C26.4624 136.22 26.4624 150.616 26.191 159.58Z" fill="#4F4F4F" fill-opacity="0.2"/>
<path d="M26.191 287.244C25.9196 290.232 25.6482 288.466 25.6482 283.169C25.6482 277.873 25.9196 275.564 26.191 277.737C26.4624 279.91 26.4624 284.256 26.191 287.244Z" fill="#4F4F4F" fill-opacity="0.2"/>
<path d="M474.013 251.932C473.741 256.414 473.605 253.019 473.605 244.463C473.605 235.907 473.741 232.24 474.013 236.314C474.284 240.388 474.284 247.451 474.013 251.932Z" fill="#ACACAC" fill-opacity="0.6"/>
<path d="M474.013 284.528C473.742 287.515 473.47 285.75 473.47 280.453C473.47 275.157 473.742 272.848 474.013 275.021C474.284 277.194 474.284 281.54 474.013 284.528Z" fill="#8B8C8B" fill-opacity="0.5"/>
<path d="M26.1908 248.537C26.0551 261.575 25.9194 250.303 25.9194 223.412C25.9194 196.521 26.0551 185.792 26.1908 199.645C26.4622 213.498 26.4622 235.499 26.1908 248.537Z" fill="#4A4A4B" fill-opacity="0.3"/>
<path d="M0.407111 387.745C0.135704 390.733 0 387.609 0 380.955C0 374.3 0.135704 371.719 0.407111 375.522C0.678518 379.189 0.678518 384.757 0.407111 387.745Z" fill="#767676" fill-opacity="0.5"/>
<path d="M499.796 374.843C499.661 381.226 499.389 376.609 499.389 364.657C499.389 352.705 499.661 347.545 499.796 353.113C500.068 358.681 500.068 368.46 499.796 374.843Z" fill="#2F3230" fill-opacity="0.3"/>
<path d="M309.54 217.844C306.962 218.523 306.826 218.115 307.505 210.102C308.047 203.04 308.183 202.633 308.455 207.522C308.726 210.645 309.676 213.498 310.49 214.041C311.44 214.448 315.918 213.09 320.397 211.189C324.875 209.287 329.489 208.065 330.574 208.608C331.796 209.152 328.81 210.781 322.432 213.226C316.868 215.263 311.033 217.3 309.54 217.844Z" fill="#FBFBFB"/>
<path d="M230.832 75.6476C221.875 75.9193 207.491 75.9193 198.942 75.6476C190.392 75.5118 197.72 75.2402 215.226 75.2402C232.732 75.2402 239.788 75.5118 230.832 75.6476Z" fill="#CBCACB" fill-opacity="0.8"/>
<path d="M301.398 75.6476C296.105 75.9193 287.963 75.9193 283.078 75.6476C278.192 75.376 282.535 75.2402 292.577 75.2402C302.619 75.2402 306.69 75.376 301.398 75.6476Z" fill="#CBCACB" fill-opacity="0.8"/>
<path d="M464.514 167.729C464.378 173.704 464.106 169.494 464.106 158.222C464.106 146.949 464.378 142.196 464.514 147.357C464.785 152.518 464.785 161.753 464.514 167.729Z" fill="#CBCACB" fill-opacity="0.8"/>
<path d="M96.4853 151.703C93.4998 151.974 89.1573 151.974 86.9861 151.703C84.6791 151.431 87.1218 151.16 92.4142 151.16C97.571 151.16 99.4708 151.431 96.4853 151.703Z" fill="#CBCACB" fill-opacity="0.8"/>
<path d="M420.817 151.703C417.831 151.974 413.489 151.974 411.318 151.703C409.011 151.431 411.453 151.16 416.746 151.16C421.903 151.16 423.802 151.431 420.817 151.703Z" fill="#CBCACB" fill-opacity="0.8"/>
<path d="M93.7713 155.777C88.4788 156.049 80.3366 156.049 75.4513 155.777C70.5659 155.506 74.9085 155.37 84.9505 155.37C94.9926 155.37 98.928 155.506 93.7713 155.777Z" fill="#CBCACB" fill-opacity="0.8"/>
<path d="M426.924 155.777C423.531 156.049 417.424 156.049 413.353 155.777C409.282 155.506 411.996 155.37 419.46 155.37C426.924 155.37 430.316 155.506 426.924 155.777Z" fill="#CBCACB" fill-opacity="0.8"/>
<path d="M35.6901 264.156C35.5544 282.898 35.4187 268.094 35.4187 231.561C35.4187 195.027 35.5544 179.68 35.6901 197.607C35.9615 215.535 35.9615 245.549 35.6901 264.156Z" fill="#CBCACB" fill-opacity="0.8"/>
<path d="M46.5464 275.7C46.275 279.774 46.1393 276.786 46.1393 268.909C46.1393 261.032 46.275 257.772 46.5464 261.439C46.8178 265.242 46.8178 271.625 46.5464 275.7Z" fill="#CBCACB" fill-opacity="0.8"/>
<path d="M430.316 256.279C427.331 256.55 422.717 256.55 420.138 256.279C417.56 256.007 420.003 255.735 425.567 255.735C431.13 255.735 433.302 256.007 430.316 256.279Z" fill="#CBCACB" fill-opacity="0.8"/>
<path d="M253.902 51.2014C250.238 51.473 244.402 51.473 241.01 51.2014C237.617 50.9297 240.738 50.7939 247.795 50.7939C254.852 50.7939 257.701 50.9297 253.902 51.2014Z" fill="#3B3B3B" fill-opacity="0.1"/>
<path d="M119.284 105.526C109.513 105.391 101.778 104.847 102.049 104.304C102.321 103.897 112.498 103.489 124.576 103.489C140.453 103.489 145.339 103.761 141.946 104.712C139.368 105.391 129.19 105.798 119.284 105.526Z" fill="#3B3B3B" fill-opacity="0.1"/>
<path d="M379.156 105.934C365.179 105.934 357.986 105.391 358.393 104.576C358.936 103.761 366.807 103.218 377.799 103.218C387.977 103.218 397.34 103.897 398.426 104.576C399.783 105.391 393.405 105.934 379.156 105.934Z" fill="#3B3B3B" fill-opacity="0.1"/>
<path d="M455.014 191.496C454.743 195.57 454.607 192.854 454.607 185.384C454.607 177.915 454.743 174.519 455.014 177.915C455.286 181.31 455.286 187.421 455.014 191.496Z" fill="#3B3B3B" fill-opacity="0.1"/>
<path d="M85.6292 182.94C81.1509 183.211 74.0944 183.211 70.0232 182.94C65.9521 182.668 69.6161 182.532 78.1655 182.532C86.7148 182.532 90.1074 182.668 85.6292 182.94Z" fill="#3B3B3B" fill-opacity="0.1"/>
<path d="M103.949 120.466C99.878 120.737 93.4999 120.737 89.7002 120.466C85.9005 120.194 89.2931 120.058 97.1639 120.058C105.035 120.058 108.02 120.194 103.949 120.466Z" fill="#6B6B6B" fill-opacity="0.4"/>
<path d="M404.533 120.466C399.24 120.737 391.098 120.737 386.213 120.466C381.327 120.194 385.67 120.058 395.712 120.058C405.754 120.058 409.825 120.194 404.533 120.466Z" fill="#6B6B6B" fill-opacity="0.4"/>
<path d="M92.4143 267.144C87.2576 267.415 78.0297 267.415 72.0588 267.144C66.0878 267.008 70.2946 266.736 81.558 266.736C92.8214 266.736 97.5711 267.008 92.4143 267.144Z" fill="#6B6B6B" fill-opacity="0.4"/>
<path d="M428.959 267.144C425.974 267.415 420.546 267.415 416.746 267.144C412.946 266.872 415.525 266.736 422.174 266.736C428.824 266.736 431.945 266.872 428.959 267.144Z" fill="#6B6B6B" fill-opacity="0.4"/>
<path d="M387.162 266.872C387.027 280.317 386.891 269.996 386.891 243.784C386.755 217.572 387.027 206.707 387.162 219.337C387.434 231.968 387.434 253.426 387.162 266.872Z" fill="#9C9B9C" fill-opacity="0.6"/>
<path d="M80.2008 228.98L91.7356 228.165C98.1137 227.758 103.406 227.215 103.542 227.079C103.677 226.943 103.542 227.35 103.27 228.165C102.863 228.98 97.8422 229.388 80.2008 228.98Z" fill="#9C9B9C" fill-opacity="0.6"/>
<path d="M439.137 229.116C436.558 229.388 431.673 229.388 428.281 229.116C424.888 228.844 427.059 228.573 433.03 228.573C439.001 228.573 441.715 228.844 439.137 229.116Z" fill="#9C9B9C" fill-opacity="0.6"/>
<path d="M53.4672 247.722C53.3315 246.907 53.7386 245.821 54.4171 245.414C55.0956 244.87 63.5092 244.599 91.0571 245.006L73.4156 245.549C61.4737 245.821 55.5027 246.5 54.8242 247.587C54.1004 248.673 53.6481 248.718 53.4672 247.722Z" fill="#9C9B9C" fill-opacity="0.6"/>
<path d="M422.852 245.414C418.781 245.685 411.453 245.685 406.568 245.414C401.683 245.142 405.075 245.006 414.032 245.006C422.988 245.006 426.923 245.142 422.852 245.414Z" fill="#9C9B9C" fill-opacity="0.6"/>
<path d="M249.559 52.8311C241.145 52.9669 234.225 52.5595 234.225 52.0163C234.225 51.3372 242.638 50.9298 252.952 50.7939C263.129 50.6581 270.05 51.0656 268.15 51.6088C266.251 52.2879 257.837 52.6953 249.559 52.8311Z" fill="#4F4F4F" fill-opacity="0.2"/>
<path d="M238.296 63.4245C234.903 63.6961 228.796 63.6961 224.725 63.4245C220.654 63.1529 223.368 63.0171 230.832 63.0171C238.296 63.0171 241.688 63.1529 238.296 63.4245Z" fill="#4F4F4F" fill-opacity="0.2"/>
<path d="M285.792 63.4245C280.907 63.6961 273.307 63.6961 268.829 63.4245C264.351 63.1529 268.286 63.0171 277.65 63.0171C287.013 63.0171 290.677 63.1529 285.792 63.4245Z" fill="#4F4F4F" fill-opacity="0.2"/>
<path d="M427.602 182.94C423.938 183.211 418.103 183.211 414.71 182.94C411.318 182.668 414.439 182.532 421.496 182.532C428.552 182.532 431.402 182.668 427.602 182.94Z" fill="#4F4F4F" fill-opacity="0.2"/>
<path d="M91.0572 195.163C85.0862 195.434 75.0442 195.434 68.6661 195.163C62.288 195.027 67.1734 194.755 79.5224 194.755C91.8714 194.755 97.0282 195.027 91.0572 195.163Z" fill="#4F4F4F" fill-opacity="0.2"/>
<path d="M455.014 211.189C454.743 214.177 454.471 212.275 454.471 207.114C454.471 201.953 454.743 199.373 455.014 201.682C455.286 203.991 455.286 208.201 455.014 211.189Z" fill="#4F4F4F" fill-opacity="0.2"/>
<path d="M81.5579 214.177C78.5725 214.448 73.9585 214.448 71.3802 214.177C68.8018 213.905 71.2445 213.633 76.8083 213.633C82.3722 213.633 84.5434 213.905 81.5579 214.177Z" fill="#4F4F4F" fill-opacity="0.2"/>
<path d="M431.673 214.177C427.195 214.448 419.324 214.448 414.032 214.177C408.739 213.905 412.539 213.769 422.174 213.769C431.809 213.769 436.151 213.905 431.673 214.177Z" fill="#4F4F4F" fill-opacity="0.2"/>
<path d="M89.0216 117.75C84.9505 118.021 78.5724 118.021 74.7727 117.75C70.973 117.478 74.3656 117.342 82.2364 117.342C90.1072 117.342 93.0927 117.478 89.0216 117.75Z" fill="#ACACAC" fill-opacity="0.6"/>
<path d="M411.996 117.75C407.111 118.021 399.511 118.021 395.033 117.75C390.555 117.478 394.49 117.342 403.854 117.342C413.218 117.342 416.882 117.478 411.996 117.75Z" fill="#ACACAC" fill-opacity="0.6"/>
<path d="M434.387 201.953C429.909 202.225 422.038 202.225 416.746 201.953C411.453 201.682 415.253 201.546 424.888 201.546C434.523 201.546 438.866 201.682 434.387 201.953Z" fill="#ACACAC" fill-opacity="0.6"/>
<path d="M91.7357 210.102C87.6646 210.374 80.3366 210.374 75.4512 210.102C70.5659 209.831 73.9585 209.695 82.9149 209.695C91.8714 209.695 95.8068 209.831 91.7357 210.102Z" fill="#ACACAC" fill-opacity="0.6"/>
<path d="M434.387 210.102C429.909 210.374 422.038 210.374 416.746 210.102C411.453 209.831 415.253 209.695 424.888 209.695C434.523 209.695 438.866 209.831 434.387 210.102Z" fill="#ACACAC" fill-opacity="0.6"/>
<path d="M74.7727 229.116C71.1087 229.388 65.2735 229.388 61.8809 229.116C58.4883 228.844 61.6095 228.709 68.666 228.709C75.7226 228.709 78.5724 228.844 74.7727 229.116Z" fill="#ACACAC" fill-opacity="0.6"/>
<path d="M9.90638 385.029C9.77067 391.005 9.49927 385.572 9.49927 372.806C9.49927 360.039 9.77067 355.286 9.90638 361.941C10.1778 368.731 10.1778 379.053 9.90638 385.029Z" fill="#ACACAC" fill-opacity="0.6"/>
<path d="M434.388 173.433C428.417 173.704 417.967 173.704 411.318 173.433C404.668 173.297 409.418 173.025 422.174 173.025C434.93 173.025 440.358 173.297 434.388 173.433Z" fill="#8B8C8B" fill-opacity="0.5"/>
<path d="M93.7715 234.548C88.6148 234.82 79.3869 234.82 73.416 234.548C67.445 234.413 71.6518 234.141 82.9152 234.141C94.1786 234.141 98.9282 234.413 93.7715 234.548Z" fill="#8B8C8B" fill-opacity="0.5"/>
<path d="M424.888 234.548C419.596 234.82 411.454 234.82 406.568 234.548C401.683 234.277 406.026 234.141 416.068 234.141C426.11 234.141 430.181 234.277 424.888 234.548Z" fill="#8B8C8B" fill-opacity="0.5"/>
<path d="M93.7713 256.278C90.7858 256.55 85.3576 256.55 81.5579 256.278C77.7582 256.007 80.2009 255.871 86.9861 255.871C93.6356 255.871 96.7567 256.007 93.7713 256.278Z" fill="#DFDFE0" fill-opacity="0.8"/>
<path d="M227.439 72.9314C221.875 73.203 212.376 73.203 206.405 72.9314C200.434 72.7956 205.048 72.524 216.583 72.524C228.118 72.524 233.003 72.7956 227.439 72.9314Z" fill="#7B7C7C" fill-opacity="0.4"/>
<path d="M302.076 72.9314C298.005 73.203 290.677 73.203 285.792 72.9314C280.907 72.6598 284.299 72.524 293.256 72.524C302.212 72.524 306.147 72.6598 302.076 72.9314Z" fill="#7B7C7C" fill-opacity="0.4"/>
<path d="M432.352 166.642C428.959 166.914 422.853 166.914 418.781 166.642C414.71 166.371 417.424 166.235 424.888 166.235C432.352 166.235 435.744 166.371 432.352 166.642Z" fill="#7B7C7C" fill-opacity="0.4"/>
<path d="M80.8794 176.149C77.4868 176.421 71.3801 176.421 67.309 176.149C63.2379 175.877 65.952 175.742 73.4157 175.742C80.8794 175.742 84.272 175.877 80.8794 176.149Z" fill="#7B7C7C" fill-opacity="0.4"/>
<path d="M426.245 176.149C421.767 176.421 414.71 176.421 410.639 176.149C406.568 175.877 410.232 175.742 418.781 175.742C427.331 175.742 430.723 175.877 426.245 176.149Z" fill="#7B7C7C" fill-opacity="0.4"/>
<path d="M87.6646 193.805C84.272 194.076 78.1653 194.076 74.0942 193.805C70.0231 193.533 72.7372 193.397 80.2009 193.397C87.6646 193.397 91.0571 193.533 87.6646 193.805Z" fill="#7B7C7C" fill-opacity="0.4"/>
<path d="M238.974 42.9168L251.187 42.1019C257.837 41.6945 263.536 41.1512 263.672 41.0154C263.808 40.8796 263.672 41.4229 263.401 42.1019C262.994 42.9168 257.701 43.3242 238.974 42.9168Z" fill="#BABBBE" fill-opacity="0.7"/>
<path d="M181.978 94.6614C178.993 94.9331 174.786 94.9331 172.479 94.6614C170.172 94.3898 172.751 94.1182 177.907 94.1182C183.064 94.1182 184.964 94.3898 181.978 94.6614Z" fill="#BABBBE" fill-opacity="0.7"/>
<path d="M46.5463 156.864C46.4106 164.333 46.1392 158.765 46.1392 144.64C46.1392 130.516 46.4106 124.404 46.5463 131.059C46.8177 137.714 46.8177 149.394 46.5463 156.864Z" fill="#BABBBE" fill-opacity="0.7"/>
<path d="M464.513 229.523C464.378 238.894 464.106 230.882 464.106 211.868C464.106 192.854 464.378 185.113 464.513 194.891C464.785 204.67 464.785 220.152 464.513 229.523Z" fill="#BABBBE" fill-opacity="0.7"/>
<path d="M46.5463 239.709C46.4106 248.673 46.1392 240.796 46.1392 222.054C46.1392 203.312 46.4106 195.978 46.5463 205.756C46.8177 215.535 46.8177 230.746 46.5463 239.709Z" fill="#BABBBE" fill-opacity="0.7"/>
<path d="M464.513 272.304C464.242 277.601 464.106 273.798 464.106 264.156C464.106 254.377 464.242 250.167 464.513 254.649C464.785 259.131 464.785 267.008 464.513 272.304Z" fill="#BABBBE" fill-opacity="0.7"/>
<path d="M114.398 179.952C114.262 187.421 113.991 181.853 113.991 167.729C113.991 153.604 114.262 147.493 114.398 154.147C114.669 160.802 114.669 172.482 114.398 179.952Z" fill="#5A5A5A" fill-opacity="0.3"/>
<path d="M114.398 281.132C114.127 286.021 113.991 282.355 113.991 272.983C113.991 263.612 114.127 259.674 114.398 264.156C114.669 268.637 114.669 276.243 114.398 281.132Z" fill="#5A5A5A" fill-opacity="0.3"/>
<path d="M427.602 195.163C423.938 195.434 417.153 195.434 412.675 195.163C408.196 194.891 411.182 194.755 419.46 194.755C427.738 194.755 431.402 194.891 427.602 195.163Z" fill="#4A4A4B" fill-opacity="0.3"/>
<path d="M114.398 241.747C114.262 250.303 113.991 243.648 113.991 226.807C113.991 209.966 114.262 202.904 114.398 211.189C114.669 219.473 114.669 233.19 114.398 241.747Z" fill="#4A4A4B" fill-opacity="0.3"/>
<path d="M340.073 82.4383C336.002 82.7099 329.624 82.7099 325.824 82.4383C322.025 82.1667 325.417 82.0309 333.288 82.0309C341.159 82.0309 344.144 82.1667 340.073 82.4383Z" fill="#BEBDBC" fill-opacity="0.7"/>
<path d="M91.0571 201.953C86.5789 202.225 79.5223 202.225 75.4512 201.953C71.3801 201.682 75.0441 201.546 83.5934 201.546C92.1428 201.546 95.5354 201.682 91.0571 201.953Z" fill="#BEBDBC" fill-opacity="0.7"/>
<path d="M276.971 64.7826C273.986 65.0543 269.372 65.0543 266.793 64.7826C264.215 64.511 266.658 64.2394 272.221 64.2394C277.785 64.2394 279.957 64.511 276.971 64.7826Z" fill="#767676" fill-opacity="0.5"/>
<path d="M81.5579 129.973C77.8939 130.244 72.0587 130.244 68.6661 129.973C65.2735 129.701 68.3947 129.565 75.4512 129.565C82.5078 129.565 85.3576 129.701 81.5579 129.973Z" fill="#767676" fill-opacity="0.5"/>
<path d="M74.7727 144.912C71.7872 145.184 66.3591 145.184 62.5594 144.912C58.7597 144.64 61.2024 144.505 67.9875 144.505C74.7727 144.505 77.7582 144.64 74.7727 144.912Z" fill="#767676" fill-opacity="0.5"/>
<path d="M433.03 144.912C428.552 145.184 421.495 145.184 417.424 144.912C413.353 144.64 417.017 144.505 425.567 144.505C434.116 144.505 437.509 144.64 433.03 144.912Z" fill="#767676" fill-opacity="0.5"/>
<path d="M85.629 166.642C81.1508 166.914 73.1443 166.914 67.9875 166.642C62.8308 166.371 66.3591 166.235 76.1298 166.235C85.9004 166.235 90.1072 166.371 85.629 166.642Z" fill="#767676" fill-opacity="0.5"/>
<path d="M455.014 153.468C454.879 159.852 454.607 155.234 454.607 143.282C454.607 131.331 454.879 126.17 455.014 131.738C455.286 137.307 455.286 147.085 455.014 153.468Z" fill="#2F3230" fill-opacity="0.3"/>
<path d="M455.014 259.402C454.743 264.291 454.607 260.625 454.607 251.253C454.607 241.882 454.743 237.944 455.014 242.426C455.286 246.907 455.286 254.513 455.014 259.402Z" fill="#2F3230" fill-opacity="0.3"/>
<path d="M308.454 194.891C308.183 197.879 308.047 194.755 308.047 188.101C308.047 181.446 308.183 178.865 308.454 182.668C308.726 186.335 308.726 191.903 308.454 194.891Z" fill="#0D0D0D" fill-opacity="0.9"/>
<path fill-rule="evenodd" clip-rule="evenodd" d="M251.866 100.094C254.444 100.501 258.787 101.724 261.365 102.81C265.708 104.712 265.844 104.983 263.401 105.934C261.908 106.613 252.816 110.144 243.045 113.811C233.275 117.614 210.476 126.17 158.909 145.455L137.197 138.121L141.946 136.22C144.525 135.134 162.03 129.158 180.622 122.775C199.349 116.527 221.876 108.65 230.832 105.391C242.774 101.045 248.338 99.5507 251.866 100.094ZM272.222 107.428C274.664 107.428 273.036 108.65 266.793 111.502C261.908 113.811 253.087 117.342 247.116 119.515C241.145 121.552 225.268 127.664 211.833 133.096C198.399 138.393 183.879 144.233 179.536 145.999C175.329 147.9 169.765 149.394 167.458 149.394C163.387 149.258 163.93 148.987 171.801 145.591C176.686 143.418 192.292 137.307 206.405 131.874C220.519 126.306 240.467 118.7 250.509 114.626C260.551 110.687 270.322 107.428 272.222 107.428ZM312.254 121.009C313.747 120.873 326.232 124.676 339.802 129.429C358.801 135.813 364.093 138.121 362.193 139.072C360.565 139.887 353.372 138.393 339.666 134.59C328.674 131.602 318.632 129.022 317.411 129.022C315.782 129.022 315.511 129.429 316.325 130.244C317.139 130.923 324.739 134.183 333.288 137.578C344.687 141.924 348.216 143.826 346.18 144.505C344.687 144.912 336.138 143.011 326.503 140.023C317.139 137.171 307.505 134.455 305.062 133.911C302.755 133.504 300.719 133.504 300.719 134.183C300.584 134.726 308.183 138.257 317.275 142.06C328.539 146.814 333.153 149.258 331.253 149.666C329.76 150.073 319.718 147.628 308.862 144.369C298.005 141.109 288.235 138.665 287.149 138.936C286.063 139.208 289.727 141.653 295.291 144.233C300.855 146.949 308.047 149.937 311.304 150.888C314.425 151.974 317.004 153.197 317.004 153.876C317.004 154.419 315.375 154.555 313.204 154.283C311.169 154.012 301.941 151.567 292.577 148.851C283.214 146.134 274.393 143.961 272.9 144.097C271 144.097 271.95 144.912 275.614 146.678C278.6 148.172 285.792 151.295 291.627 153.74C297.462 156.185 302.212 158.629 302.076 159.308C302.076 159.852 301.126 160.259 300.041 160.259C298.955 160.259 295.698 159.308 292.849 158.222C290.134 156.999 281.178 154.283 272.9 151.974C264.622 149.666 257.701 148.172 257.294 148.579C256.887 148.987 256.887 149.53 257.294 149.801C257.701 150.073 265.165 153.333 273.986 156.999C284.706 161.481 289.185 163.926 287.828 164.741C286.606 165.284 281.449 164.062 275.207 161.753C269.508 159.58 260.28 156.592 254.852 154.962C249.423 153.333 245.081 152.653 245.081 153.468C245.081 154.283 247.931 156.049 251.459 157.679C255.123 159.172 262.18 162.296 267.336 164.741C274.393 168 276.021 169.223 274.121 169.902C272.629 170.445 270.593 170.309 269.508 169.766C268.422 169.087 260.008 166.099 250.78 163.111C241.688 159.987 233.682 157.543 232.868 157.543C232.053 157.543 231.511 158.086 231.511 158.901C231.511 159.716 231.918 160.259 232.46 160.259C233.139 160.259 240.196 163.383 248.473 167.321C258.108 171.803 262.451 174.519 260.687 174.791C259.194 175.063 250.509 172.618 241.417 169.494C232.325 166.235 224.861 164.062 224.725 164.741C224.725 165.284 227.032 166.914 229.746 168.408C232.596 169.766 234.632 170.988 234.225 171.124C233.817 171.124 227.711 169.087 220.654 166.506C213.598 163.926 208.034 161.345 208.305 160.802C208.577 160.123 213.733 157.679 219.84 155.234C225.811 152.925 239.11 147.764 249.152 143.961C259.194 140.023 273.579 134.455 281.042 131.467C288.506 128.479 298.005 124.948 302.076 123.59C306.148 122.096 310.761 121.009 312.254 121.009V121.009ZM214.548 141.381C215.362 141.381 214.14 142.332 211.833 143.554C209.527 144.776 203.148 147.357 197.585 149.394C192.021 151.431 186.05 153.74 184.286 154.555C182.386 155.641 181.029 155.641 180.622 154.826C180.215 154.012 181.572 152.925 183.607 152.246C185.778 151.567 193.242 148.987 200.299 146.27C207.355 143.554 213.733 141.381 214.548 141.381ZM126.205 145.591C127.019 145.999 133.125 148.036 151.581 153.876V176.692C151.445 189.323 151.038 199.645 150.36 199.645C149.817 199.645 143.846 197.607 124.983 190.409L124.847 167.729C124.712 151.431 125.119 145.184 126.205 145.591ZM161.216 156.864C162.03 157.407 162.437 162.704 162.302 169.494C161.895 181.038 161.895 181.174 160.945 173.84C160.266 169.766 159.859 164.062 159.859 161.21C159.859 158.086 160.402 156.32 161.216 156.864ZM174.922 161.617C176.686 161.617 177.229 162.839 177.093 166.778C177.093 169.494 176.551 174.927 175.872 178.594C175.329 182.396 174.786 183.89 174.651 181.989C174.651 180.088 174.108 174.791 173.565 170.173C172.887 162.704 173.022 161.617 174.922 161.617V161.617ZM192.835 168.408C193.242 168.408 199.077 170.581 205.727 173.161C212.376 175.742 218.483 177.915 219.297 177.915C220.111 177.915 226.489 180.223 246.438 188.101L246.709 211.596C247.116 231.832 246.845 234.956 245.081 234.684C243.452 234.277 243.045 230.746 242.638 213.498C242.503 200.867 241.824 192.854 241.01 192.854C240.196 192.854 239.381 193.805 238.974 194.891C238.567 195.978 238.296 204.941 238.296 214.584C238.296 224.363 238.024 232.24 237.617 232.24C237.21 232.24 229.746 229.388 220.926 225.992C212.241 222.597 202.199 218.794 192.156 215.263V191.903C192.156 179.001 192.428 168.408 192.835 168.408V168.408ZM126.883 206.707C128.104 207.114 144.253 213.498 162.98 220.967C181.572 228.437 205.184 237.808 215.226 241.747C225.268 245.685 236.803 250.439 240.603 252.204C244.538 253.834 247.795 256.279 247.931 257.365C247.931 258.995 246.981 258.859 242.095 256.822C238.839 255.464 231.782 252.747 226.354 250.71C221.061 248.809 216.583 247.587 216.583 248.266C216.583 248.809 223.504 252.34 231.918 256.143C243.86 261.575 247.252 263.748 247.795 268.909L240.603 265.785C236.803 264.02 231.918 262.118 229.746 261.711C227.711 261.168 219.569 257.908 211.426 254.513C203.42 251.118 192.021 246.228 186.05 243.784C180.079 241.339 164.202 234.956 150.767 229.523C137.332 224.227 125.797 219.202 124.983 218.387C124.033 217.436 124.712 217.164 127.29 217.844C129.461 218.251 131.361 218.115 131.768 217.3C132.175 216.485 130.547 215.399 128.376 214.584C125.119 213.498 124.305 212.547 124.576 209.695C124.712 207.114 125.255 206.299 126.883 206.707V206.707ZM124.033 232.375L131.361 234.956C135.297 236.314 147.374 241.203 158.231 245.821C169.087 250.439 183.743 256.55 190.799 259.402C197.856 262.39 213.462 268.909 225.404 274.07C243.452 281.675 247.116 283.713 247.388 286.293C247.659 287.923 247.524 289.281 247.116 289.281C246.709 289.281 242.095 287.38 236.939 285.207C231.646 283.034 226.897 281.132 226.082 281.132C225.268 281.132 224.725 281.54 224.725 282.219C224.59 282.762 228.796 285.207 233.817 287.515C238.839 289.96 244.131 291.997 245.352 291.997C246.845 291.997 247.795 293.084 247.795 294.714C247.795 296.343 247.116 297.158 246.031 296.887C245.217 296.479 238.567 293.763 231.511 290.911C224.454 287.923 210.612 282.083 200.977 277.873C191.207 273.663 180.215 268.773 176.551 267.008C172.751 265.242 168.273 263.341 166.373 262.798C164.473 262.254 154.431 258.18 143.982 253.698C133.533 249.216 124.712 245.278 124.305 245.006C123.898 244.734 123.898 244.191 124.305 243.784C124.712 243.376 127.29 244.055 130.004 245.142C132.854 246.228 135.432 247.179 135.839 247.179C136.247 247.179 136.518 246.636 136.518 245.821C136.518 245.006 133.804 243.241 130.411 241.747C125.662 239.574 124.305 238.351 124.169 235.771L124.033 232.375ZM177.229 263.748C187.271 267.823 199.213 272.848 203.691 274.749C208.169 276.786 211.969 278.144 212.105 278.009C212.376 277.873 207.491 275.292 201.249 272.44C195.142 269.452 186.457 265.785 181.979 264.02C177.5 262.39 168.273 258.452 161.487 255.328C154.838 252.34 148.731 249.895 147.917 249.895C147.239 249.895 149.41 251.389 152.802 253.155C156.195 254.92 167.187 259.674 177.229 263.748ZM125.255 259.266C125.797 259.266 131.497 261.304 137.875 263.884C144.253 266.464 161.352 273.798 175.872 280.317C190.392 286.701 202.606 291.997 203.013 291.997C203.42 291.997 213.598 296.343 225.675 301.776C244.809 310.332 247.795 312.098 247.795 314.678C247.795 316.308 247.524 317.666 247.116 317.666C246.709 317.666 234.903 312.777 220.926 306.665C206.948 300.553 185.507 291.318 173.158 286.157C160.809 280.996 148.731 275.836 146.289 274.749C143.71 273.663 141.946 273.527 141.946 274.206C141.946 275.021 145.474 277.329 149.681 279.502C154.024 281.675 167.323 287.515 179.265 292.54C191.207 297.566 204.37 303.27 208.441 305.171C212.512 306.937 222.011 311.147 229.475 314.271C236.939 317.394 244.131 320.382 245.352 320.925C246.709 321.469 247.795 322.419 247.795 323.098C247.795 323.913 247.524 324.456 247.116 324.456C246.709 324.456 241.417 322.419 235.175 319.975C229.068 317.394 216.99 312.233 208.441 308.295C199.892 304.356 187.678 298.924 181.3 296.072C174.922 293.355 159.452 286.429 146.967 280.996C134.482 275.428 124.169 270.403 124.305 269.86C124.305 269.317 125.39 269.181 126.612 269.724C127.969 270.131 130.14 270.675 131.361 271.082C132.718 271.354 133.804 271.082 133.804 270.539C133.804 269.996 131.633 268.502 129.054 267.144C125.933 265.65 124.305 263.748 124.305 261.983C124.305 260.489 124.712 259.266 125.255 259.266V259.266ZM125.255 283.848C125.797 283.848 130.547 285.75 135.839 288.059C140.996 290.368 158.502 298.245 174.515 305.579C190.528 312.912 208.577 320.925 214.548 323.506C220.519 326.222 230.153 330.704 236.124 333.556C241.96 336.408 247.116 339.532 247.659 340.482C248.066 341.433 248.202 342.52 247.795 342.927C247.388 343.199 240.738 340.482 232.868 336.951C224.997 333.284 213.191 327.716 206.677 324.728C200.163 321.604 194.328 319.024 193.785 319.024C193.242 319.024 180.35 313.32 165.016 306.393C149.681 299.467 134.211 292.54 130.683 291.182C126.34 289.372 124.169 287.697 124.169 286.157C124.305 284.799 124.712 283.848 125.255 283.848V283.848ZM33.2475 325.815C35.6902 325.815 38.9471 327.173 41.1184 329.074C43.1539 330.84 45.5966 334.642 46.5465 337.63C47.4964 340.482 48.3106 345.507 48.3106 348.631C48.3106 351.755 48.0392 354.335 47.6321 354.335C47.225 354.335 45.0538 353.52 42.8825 352.298C39.4899 350.668 38.6757 349.446 38.4043 344.693C38.2686 341.297 37.1829 338.445 35.8259 337.495C34.0618 336.408 33.1118 336.544 31.3477 338.038C29.9907 339.396 29.1764 342.248 29.1764 345.507C29.3121 348.631 30.6692 353.249 32.2976 356.101C34.0618 358.953 38.1329 365.608 41.5255 371.04C47.225 380.275 47.6321 381.498 48.0392 392.363C48.5821 402.956 48.3106 404.314 45.3252 407.845C43.1539 410.562 40.8469 411.92 37.8615 411.92C35.4188 412.056 31.8905 410.833 29.7192 409.339C27.548 407.71 24.8339 404.45 23.4769 401.87C22.2556 399.289 21.1699 394.264 21.1699 390.733C21.1699 387.202 21.4413 384.214 21.8484 384.214C22.2556 384.214 24.0197 385.029 25.9195 385.98C28.4979 387.202 29.3121 388.696 29.3121 391.684C29.1764 393.993 30.2621 397.252 31.6191 399.153C33.2475 401.326 34.7403 402.006 36.3687 401.462C38.4043 400.783 38.8114 398.882 38.8114 391.412C38.8114 382.72 38.54 381.769 32.569 373.349C29.0407 368.596 25.1053 362.077 23.7483 359.089C21.9841 355.286 21.1699 350.804 21.3056 343.742C21.3056 334.778 21.7127 333.42 25.241 329.889C27.8194 327.173 30.3978 325.815 33.2475 325.815V325.815ZM462.207 326.086C464.107 325.95 466.821 326.765 468.313 327.716C470.756 329.482 471.027 331.519 471.434 346.458C471.706 355.693 471.57 365.2 471.163 367.645C470.62 370.09 468.856 373.485 466.956 375.115C464.378 377.423 463.699 378.917 464.378 381.498C464.921 383.399 467.228 389.103 473.741 403.228L469.263 407.71C465.192 411.784 464.921 411.92 464.107 409.339C463.564 407.845 460.985 401.191 458.543 394.4C455.964 387.745 453.522 381.769 453.25 381.226C452.979 380.683 451.35 380.683 449.858 381.226C447.144 382.177 447.008 382.992 447.958 412.871L442.53 414.364C439.544 415.179 436.83 415.994 436.423 416.266C436.016 416.402 436.016 397.66 437.101 332.198L447.958 329.21C453.929 327.58 460.307 326.086 462.207 326.086V326.086ZM448.093 342.384L448.501 369.954C455.421 368.324 457.864 367.102 458.407 366.287C458.95 365.336 459.357 359.089 459.085 352.434C458.95 345.779 458.136 340.211 457.457 340.075C456.643 339.803 454.2 340.347 452.029 341.026L448.093 342.384ZM56.0458 331.79C57.4028 332.198 63.7809 334.371 70.0232 336.544C76.4013 338.581 81.558 341.026 81.558 341.976C81.558 342.791 81.4223 345.372 81.2866 347.545C81.0152 351.212 80.6081 351.483 78.1654 350.261C76.6727 349.582 74.6371 348.903 73.4158 348.903C71.6517 348.903 71.516 353.656 72.0588 420.34L62.5595 417.896L63.238 346.187H59.1669C55.3672 346.187 55.0958 345.915 55.0958 340.754C55.0958 337.766 54.8244 334.371 54.2816 333.148C53.7388 331.519 54.1459 331.247 56.0458 331.79ZM426.652 335.593C427.738 335.457 428.281 337.359 428.281 341.161C428.416 346.73 428.145 347.001 423.26 347.952C420.41 348.495 415.796 349.582 407.925 351.619V363.842C407.925 374.707 408.197 376.065 410.368 376.065C411.589 376.065 416.067 375.25 420.139 374.028C424.345 372.942 427.738 372.127 428.009 372.127C428.145 372.127 428.281 374.3 428.416 382.177L408.604 387.609L407.925 412.735L411.725 411.92C413.76 411.377 418.51 410.018 429.231 406.623L428.552 412.056C428.281 415.044 427.602 417.896 427.331 418.167C426.924 418.575 420.817 420.612 413.625 422.649C406.432 424.686 399.919 426.316 399.104 426.316C398.29 426.316 398.019 412.056 399.104 343.063L411.996 339.396C419.189 337.359 425.702 335.593 426.652 335.593ZM98.521 345.779C100.421 346.051 103.271 347.273 105.035 348.36C106.663 349.446 108.97 352.57 110.191 355.422C111.956 359.632 112.363 365.472 111.413 422.513L107.749 425.773C105.713 427.674 103.135 429.032 101.914 429.032C100.828 429.032 98.1139 428.217 95.8069 426.995C93.6357 425.909 90.6502 423.056 89.4288 420.612C87.3933 416.945 86.9862 411.648 86.5791 386.93C86.3077 366.015 86.5791 356.372 87.8004 352.977C88.7503 350.261 90.7859 347.409 92.4143 346.458C93.9071 345.643 96.7568 345.372 98.521 345.779V345.779ZM99.1995 414.772C101.778 414.772 101.914 413.821 102.321 388.967C102.592 374.843 102.456 361.805 102.049 360.175C101.506 358.274 100.285 357.052 98.521 357.052C95.8069 357.052 95.8069 357.866 96.214 385.98C96.4854 413.821 96.6211 414.772 99.1995 414.772V414.772ZM390.962 345.372C391.098 345.507 390.962 348.495 390.691 352.026C390.284 358.274 390.148 358.41 385.941 358.545C383.499 358.545 380.784 358.953 379.835 359.496C378.478 360.311 378.206 368.731 378.749 431.613L373.999 432.563C371.421 433.107 368.707 433.65 367.893 434.057C367.078 434.329 366.671 422.377 366.943 399.289C367.078 376.337 366.807 363.842 365.857 363.842C365.179 363.842 362.465 364.793 355.001 367.917V363.163C355.001 360.583 354.729 357.731 354.322 356.78C353.915 355.693 355.815 354.471 360.022 353.385C363.686 352.434 371.964 350.261 378.613 348.495C385.398 346.73 390.827 345.372 390.962 345.372V345.372ZM135.161 354.064C137.061 354.471 140.453 355.558 142.625 356.508C144.932 357.459 148.053 359.632 149.681 361.398C151.31 363.163 153.21 367.373 154.024 370.633C154.702 374.028 154.974 377.831 154.702 379.189C154.295 380.955 153.345 381.362 150.495 380.819C148.46 380.275 146.017 379.732 145.067 379.461C144.117 379.053 143.303 377.288 143.303 375.386C143.303 373.621 142.082 370.769 140.589 369.275C139.096 367.781 136.789 366.558 135.568 366.558C134.211 366.558 132.447 367.237 131.497 368.324C130.276 369.546 129.869 376.744 130.14 394.943C130.411 419.797 130.411 419.933 133.804 422.649C136.518 424.822 137.875 424.958 140.318 423.736C142.625 422.649 143.303 421.155 143.303 417.488C143.303 413.685 143.846 412.871 145.746 413.414C146.967 413.685 149.817 414.229 151.853 414.772C155.381 415.451 155.516 415.723 154.974 423.328C154.567 429.711 153.888 431.748 150.903 434.193C148.731 436.094 145.61 437.181 142.625 437.181C140.046 437.181 135.025 435.959 131.497 434.465C127.426 432.835 124.033 430.255 122.269 427.402C119.826 423.328 119.555 420.612 119.555 392.906C119.555 364.521 119.691 362.484 122.405 358.953C124.033 356.916 126.747 354.743 128.511 354.199C130.276 353.792 133.397 353.656 135.161 354.064V354.064ZM164.337 361.669C165.287 362.212 167.458 362.891 169.358 363.435C172.751 364.25 172.887 364.25 173.022 380.004C173.022 388.696 173.429 395.487 173.836 395.079C174.108 394.807 176.279 389.239 178.586 382.856C180.893 376.609 182.657 370.361 182.657 369.003C182.657 367.373 183.471 366.785 185.1 367.237C186.321 367.509 189.035 368.188 194.192 369.546L189.85 380.004C187.543 385.708 184.828 393.178 183.879 396.437C182.386 402.141 182.657 404.45 188.221 427.402C192.835 446.688 193.785 451.985 192.156 451.441C191.071 451.034 188.628 450.355 186.728 449.947C183.607 449.268 183.064 448.182 179.536 430.662C177.5 420.476 175.465 411.784 175.194 411.377C174.786 411.105 174.244 411.105 173.836 411.377C173.429 411.784 173.158 419.661 173.158 428.761C173.158 437.86 172.751 445.466 172.208 445.466C171.665 445.466 169.223 444.922 162.302 443.293L162.573 402.141C162.709 371.04 163.116 361.126 164.337 361.669V361.669ZM337.088 361.262C338.716 361.262 341.566 362.62 343.33 364.25C345.23 365.879 346.994 369.41 347.537 371.991C348.08 375.25 347.809 377.423 346.587 378.374C345.637 379.325 342.923 380.547 340.616 381.09C336.681 382.177 336.138 381.905 335.867 378.782C335.459 376.065 334.51 375.386 330.981 375.115C327.453 374.843 326.096 375.522 324.332 378.51C322.703 381.226 322.296 383.807 322.839 387.609C323.246 390.597 324.196 393.314 324.739 393.449C325.417 393.721 330.438 396.166 336.002 398.882C343.466 402.685 346.316 404.858 346.994 407.302C347.537 409.204 348.08 414.908 348.08 419.933C348.216 425.365 347.537 430.662 346.316 432.835C345.23 434.872 343.059 437.86 341.295 439.49C339.531 441.12 334.374 443.428 329.896 444.651C322.975 446.688 321.211 446.688 317.954 445.194C315.511 443.972 313.611 441.663 312.797 438.539C311.983 435.959 311.576 432.02 311.847 429.983C312.254 426.588 313.204 425.637 323.789 422.242V427.674C323.789 432.971 324.06 433.107 328.267 433.242C330.71 433.242 333.424 432.563 334.374 431.477C335.459 430.39 335.867 426.588 335.324 412.056L325.146 407.166C317.547 403.499 314.561 401.326 313.34 398.339C312.526 396.166 311.711 392.363 311.711 389.647C311.711 387.066 312.118 382.448 312.526 379.461C313.159 375.839 315.104 372.444 318.361 369.275C320.939 366.558 325.553 363.706 328.539 362.891C331.524 362.077 335.324 361.398 337.088 361.262V361.262ZM290.949 373.485C291.899 373.485 292.577 374.028 292.577 374.707C292.577 375.522 295.698 392.77 299.362 413.142C303.162 433.514 306.148 450.491 306.148 450.762C306.283 451.17 304.519 451.985 302.484 452.392C300.448 452.935 297.598 453.75 296.377 454.158C294.341 454.837 293.934 454.022 293.934 448.046C293.934 444.379 293.391 440.984 292.577 440.576C291.899 440.305 288.642 440.576 285.521 441.391C280.5 442.614 279.55 443.428 278.735 447.095C278.057 449.54 277.65 453.207 277.65 455.244C277.65 458.504 276.971 459.047 271.95 460.133C268.693 460.677 265.979 461.22 265.844 461.084C265.708 461.084 268.286 443.836 271.543 422.921C274.936 402.006 277.921 382.992 278.328 380.547C279.007 376.744 279.821 375.929 284.164 374.843C286.878 374.3 289.999 373.621 290.949 373.485ZM282.399 430.39C287.692 429.032 289.32 428.625 289.592 428.625C289.727 428.489 289.32 424.007 288.506 418.575C287.828 413.142 286.742 408.66 286.063 408.66C285.385 408.66 284.299 413.55 283.621 419.525L282.399 430.39ZM205.048 374.843C205.455 374.843 208.577 375.522 218.619 377.695L223.911 402.413C226.761 415.994 229.339 427.402 229.611 427.81C229.882 428.217 230.425 428.217 230.696 427.81C231.103 427.402 233.275 418.575 235.446 408.117C237.753 397.66 239.653 387.881 239.653 386.387C239.653 383.942 240.603 383.671 256.616 383.263V463.121H244.402L244.809 441.663C245.081 429.983 244.945 420.612 244.538 421.019C244.131 421.427 241.96 429.168 239.788 438.268C237.481 447.503 235.582 456.331 235.582 457.96C235.582 460.812 235.039 460.948 225.675 459.726L221.197 440.033C218.619 429.168 216.312 419.661 216.04 418.982C215.769 418.167 215.362 426.588 215.362 437.588C215.226 456.059 215.09 457.689 212.919 457.01C211.562 456.738 208.984 456.059 203.691 454.837L204.098 414.772C204.234 392.77 204.777 374.843 205.048 374.843V374.843Z" fill="#FBFBFB"/>
<path d="M379.02 414.908C378.749 420.204 378.613 416.402 378.613 406.759C378.613 397.116 378.749 392.77 379.02 397.252C379.292 401.734 379.292 409.611 379.02 414.908Z" fill="#6B6B6B" fill-opacity="0.4"/>
<path d="M398.019 416.945C397.747 420.34 397.476 418.167 397.476 412.191C397.476 406.216 397.747 403.499 398.019 406.08C398.29 408.66 398.29 413.55 398.019 416.945Z" fill="#6B6B6B" fill-opacity="0.4"/>
<path d="M241.96 216.621C241.688 221.103 241.552 217.708 241.552 209.151C241.552 200.595 241.688 196.928 241.96 201.003C242.231 205.077 242.231 212.139 241.96 216.621Z" fill="#9C9B9C" fill-opacity="0.6"/>
<path d="M152.395 179.952C152.124 182.94 151.988 179.816 151.988 173.161C151.988 166.506 152.124 163.926 152.395 167.729C152.666 171.396 152.666 176.964 152.395 179.952Z" fill="#4F4F4F" fill-opacity="0.2"/>
<path d="M62.8307 391.141C62.5593 396.03 62.4236 392.634 62.4236 383.671C62.4236 374.707 62.5593 370.769 62.8307 374.843C63.1021 378.917 63.1021 386.251 62.8307 391.141Z" fill="#4F4F4F" fill-opacity="0.2"/>
<path d="M256.887 404.043C256.615 407.031 256.48 403.907 256.48 397.252C256.48 390.597 256.615 388.017 256.887 391.82C257.158 395.487 257.158 401.055 256.887 404.043Z" fill="#ACACAC" fill-opacity="0.6"/>
<path d="M247.388 219.337C247.252 224.498 246.98 220.017 246.98 209.152C246.98 198.287 247.252 194.076 247.388 199.645C247.659 205.213 247.659 214.177 247.388 219.337Z" fill="#BABBBE" fill-opacity="0.7"/>
<path d="M379.02 382.992C378.749 387.066 378.613 384.078 378.613 376.201C378.613 368.324 378.749 364.929 379.02 368.731C379.292 372.398 379.292 378.917 379.02 382.992Z" fill="#5A5A5A" fill-opacity="0.3"/>
<path d="M398.019 392.499C397.883 398.067 397.612 394.128 397.612 383.671C397.612 373.213 397.747 368.596 398.019 373.485C398.29 378.374 398.29 386.93 398.019 392.499Z" fill="#5A5A5A" fill-opacity="0.3"/>
<path d="M191.749 203.04C191.613 209.695 191.342 204.534 191.342 191.496C191.342 178.458 191.613 172.89 191.749 179.273C192.021 185.656 192.021 196.385 191.749 203.04Z" fill="#BEBDBC" fill-opacity="0.7"/>
<path d="M72.33 398.61C72.1943 407.574 71.9229 400.512 71.9229 382.992C71.9229 365.472 72.1943 358.138 72.33 366.694C72.6014 375.25 72.6014 389.647 72.33 398.61Z" fill="#BEBDBC" fill-opacity="0.7"/>
<path d="M408.875 369.41C408.604 372.806 408.332 370.361 408.332 363.978C408.332 357.595 408.604 354.879 408.875 357.866C409.146 360.854 409.146 366.015 408.875 369.41Z" fill="#BEBDBC" fill-opacity="0.7"/>
<path d="M256.887 443.428C256.751 449.404 256.48 443.972 256.48 431.205C256.48 418.439 256.751 413.685 256.887 420.34C257.158 426.995 257.158 437.453 256.887 443.428Z" fill="#BEBDBC" fill-opacity="0.7"/>
<path d="M123.898 162.296C123.626 165.284 123.355 163.383 123.355 158.222C123.355 153.061 123.626 150.48 123.898 152.789C124.169 155.098 124.169 159.308 123.898 162.296Z" fill="#767676" fill-opacity="0.5"/>
<path d="M436.016 378.238C435.744 381.226 435.609 378.102 435.609 371.448C435.609 364.793 435.744 362.212 436.016 366.015C436.287 369.682 436.287 375.25 436.016 378.238Z" fill="#2F3230" fill-opacity="0.3"/>
<path d="M95.3995 378.917C95.1281 382.992 94.9924 380.275 94.9924 372.806C94.9924 365.336 95.1281 361.941 95.3995 365.336C95.6709 368.731 95.6709 374.843 95.3995 378.917Z" fill="#3B3B3B" fill-opacity="0.1"/>
<path d="M103.542 387.745C103.27 393.042 103.135 388.967 103.135 378.917C103.135 368.867 103.27 364.521 103.542 369.41C103.813 374.3 103.813 382.448 103.542 387.745Z" fill="#BABBBE" fill-opacity="0.7"/>
<path d="M194.871 196.249C194.871 189.594 195.413 182.532 195.956 180.631C196.499 178.458 197.042 182.125 197.178 190.409C197.449 197.743 197.042 204.806 196.228 206.164C195.278 207.793 195.006 204.941 194.871 196.249Z" fill="#4A4A4B" fill-opacity="0.3"/>
</svg>
